P2
# CREATOR: GIMP PNM Filter Version 1.1
15 8
255
255
255
255
255
255
255
255
255
255
255
255
255
0
0
255
255
255
255
255
255
255
255
255
255
255
0
0
0
0
0
255
255
255
255
255
255
255
0
0
0
0
0
0
0
255
255
255
255
255
0
0
0
0
0
0
0
0
255
255
255
255
0
0
0
0
0
0
0
0
0
255
255
255
255
255
0
0
0
0
0
0
0
0
0
255
255
255
0
0
255
255
255
0
0
0
0
0
0
0
0
0
0
0
0
255
255
255
255
0
0
0
0
0
0
0
0
0
255
255
255
